# Blender v2.79 (sub 0) OBJ File: 'Barrir 1.blend'
# www.blender.org
mtllib Barrir 1.mtl
o Plane
v -7.951128 0.000000 7.951128
v 7.951128 0.000000 7.951128
v -7.951128 0.000000 -7.951128
v 7.951128 0.000000 -7.951128
v 10.579485 2.209343 7.951128
v 10.579485 2.209343 -7.951128
v 12.788828 4.647239 7.951129
v 12.788828 4.647239 -7.951127
v 13.779223 8.037438 7.951129
v 13.779223 8.037438 -7.951127
v 14.274421 11.694283 7.951129
v 14.274421 11.694283 -7.951127
v 14.274421 15.084482 7.951129
v 14.274421 15.084482 -7.951127
v 8.825373 15.084482 7.951129
v 8.825373 15.084482 -7.951127
v 14.274421 16.203976 7.951129
v 14.274421 16.203976 -7.951127
v 8.825373 16.203976 7.951129
v 8.825373 16.203976 -7.951127
v 0.000000 0.000000 7.951128
v 0.000000 0.000000 -7.951128
vn 0.0000 1.0000 0.0000
vn -0.3424 0.9395 0.0000
vn -0.6938 0.7201 0.0000
vn -0.8726 0.4884 0.0000
vn -0.9781 0.2079 0.0000
vn -0.9977 0.0672 0.0000
vn -0.8165 -0.4082 0.4082
vn -0.8165 -0.4082 -0.4082
vn -0.5773 -0.5773 0.5773
vn -0.5773 -0.5773 -0.5773
usemtl None
s 1
f 21//1 2//2 4//2 22//1
f 4//2 2//2 5//3 6//3
f 6//3 5//3 7//4 8//4
f 8//4 7//4 9//5 10//5
f 10//5 9//5 11//6 12//6
f 12//6 11//6 13//7 14//8
f 13//7 17//9 19//9 15//9
f 18//10 17//9 19//9 20//10
f 15//9 19//9 20//10 16//10
f 16//10 20//10 18//10 14//8
f 14//8 13//7 17//9 18//10
f 13//7 15//9 16//10 14//8
f 1//1 21//1 22//1 3//1
