# Blender v2.79 (sub 0) OBJ File: 'Barrier cornner.blend'
# www.blender.org
mtllib Barrier cornner.mtl
o Plane.003_Plane.002
v -0.310199 0.674974 -1.568794
v 0.617236 0.674977 13.323281
v -2.910287 2.884317 -1.953239
v -1.982174 2.884319 13.712288
v -5.095869 5.322213 -2.276397
v -4.167185 5.322216 14.039277
v -6.075613 8.712413 -2.421261
v -5.146673 8.712415 14.185859
v -6.565484 12.369257 -2.493693
v -5.636417 12.369260 14.259150
v -6.565483 15.759457 -2.493694
v -5.636416 15.759459 14.259149
v -6.565484 16.894413 -2.493694
v -1.240273 16.741459 0.003491
v -1.237848 15.894140 -0.003069
v -5.636417 16.894413 14.259147
v -0.447832 16.699720 14.135816
v -0.447078 15.943094 14.133574
v -4.883915 16.912701 -8.217405
v -0.484666 16.811605 -6.747977
v -0.481915 15.979753 -6.754187
v -4.891559 15.808698 -8.217765
v -4.201839 8.468813 -7.778017
v -4.643185 12.123787 -7.970434
v -1.075255 2.959392 -5.711250
v -2.783174 5.397287 -6.904993
v 0.956581 0.750049 -4.291106
v -1.698484 16.892548 -14.047448
v 2.152304 16.760080 -11.889013
v 2.153276 16.024071 -11.891027
v -1.706129 15.788547 -14.047810
v -1.074883 8.537831 -13.639259
v -1.516228 12.192805 -13.831676
v 2.730722 2.959392 -11.156551
v 1.022801 5.397287 -12.350297
v 4.762558 0.750049 -9.736408
vn 0.8099 -0.2842 0.5132
vn 0.6979 -0.7160 0.0177
vn 0.6500 -0.7351 0.1929
vn 0.6668 -0.2758 0.6923
vn 0.5862 -0.6051 0.5387
vn 0.0095 -0.8609 -0.5088
vn 0.3529 -0.7149 0.6037
vn 0.5812 -0.5952 0.5549
vn 0.5822 -0.5792 0.5706
vn 0.6095 -0.5643 0.5568
vn 0.5799 -0.5886 0.5633
vn 0.8378 -0.4162 0.3534
vn 0.8379 -0.4082 0.3624
vn 0.7927 -0.4082 -0.4528
vn 0.6755 -0.7338 0.0729
vn -0.0612 -0.5856 -0.8083
vn -0.3934 -0.8064 0.4415
vn -0.8995 -0.4067 0.1596
vn -0.7352 0.5658 0.3734
vn -0.2410 0.4155 -0.8771
vn -0.9143 0.3277 0.2379
vn 0.5531 -0.7601 -0.3410
vn -0.8777 -0.0186 -0.4788
vn 0.7127 0.4472 -0.5404
vn 0.8334 -0.3673 0.4130
vn 0.7926 -0.5631 -0.2339
vn 0.7569 -0.6143 -0.2230
vn -0.4173 -0.8020 0.4274
vn 0.6471 0.7614 -0.0393
vn 0.6296 0.7650 0.1353
vn 0.6843 0.7145 0.1454
vn 0.6991 0.7139 -0.0414
vn 0.8522 0.4996 0.1554
vn 0.8766 0.4786 -0.0501
vn 0.9622 0.2306 0.1451
vn 0.9773 0.2046 -0.0548
vn 0.9883 0.0774 0.1316
vn 0.9963 0.0662 -0.0554
vn 0.8863 0.2925 -0.3590
vn 0.9376 0.3265 -0.1194
vn 0.9143 0.0978 0.3931
vn 0.8757 0.1063 0.4710
vn 0.9353 -0.3502 0.0509
vn 0.5714 0.7470 0.3400
vn 0.6137 0.6983 0.3685
vn 0.8617 0.3055 0.4053
vn 0.7267 0.5596 0.3984
vn 0.5453 0.7465 0.3812
vn 0.5855 0.6997 0.4093
vn 0.6667 0.6034 0.4376
vn 0.8139 0.3478 0.4653
usemtl Material.002
s 1
f 14//1 15//2 21//3 20//4
f 16//5 13//6 14//7 17//8
f 15//2 14//1 17//9 18//10
f 18//10 17//9 16//11 12//12
f 12//13 11//14 13//6 16//5
f 11//15 15//2 18//10 12//12
f 13//6 19//16 20//17 14//7
f 11//18 13//19 19//20 22//21
f 15//2 11//15 22//22 21//3
f 31//23 28//24 29//25 30//26
f 21//3 22//22 31//23 30//26
f 19//16 28//27 29//28 20//17
f 22//21 19//20 28//24 31//23
f 20//4 21//3 30//26 29//25
usemtl Material
f 2//29 1//30 3//31 4//32
f 4//32 3//31 5//33 6//34
f 6//34 5//33 7//35 8//36
f 8//36 7//35 9//37 10//38
f 10//38 9//37 11//39 12//13
f 22//40 24//41 33//42 31//43
f 3//31 1//30 27//44 25//45
f 9//37 7//35 23//46 24//41
f 7//35 5//33 26//47 23//46
f 11//39 9//37 24//41 22//40
f 5//33 3//31 25//45 26//47
f 25//45 27//44 36//48 34//49
f 23//46 26//47 35//50 32//51
f 24//41 23//46 32//51 33//42
f 26//47 25//45 34//49 35//50
